<svg xmlns="http://www.w3.org/2000/svg" fill="none" viewBox="0 0 928 464">
  <path fill="currentColor" fill-rule="evenodd" d="M904.54 302.05c-19.4 30.34-51.1 58.01-92.28 81.53a392.9 392.9 0 0 0 10.55-33.78c28-12.55 55.35-30.48 75.05-52.1 2.2 1.46 4.43 2.91 6.68 4.35Zm22.76-69.55c-.25 58.46-43.83 111.83-115.55 152.52-28.28 16.04-60.92 30.11-97.01 41.74l.09.36-5.94 1.5c-71.08 22.17-155.05 34.98-245 34.98h-.31c-90.01-.03-174.02-12.89-245.1-35.1l-.33.56-2.73-1.53c-36.96-11.75-70.36-26.05-99.22-42.4l-.09-.03v-.02c-41.73-23.67-73.96-51.63-93.66-82.38l-.84-.28.23-.68C8.04 279.88.56 256.62.46 232.5H0v-1h.46c.1-24.3 7.7-47.72 21.68-69.72l-.06-.2.24-.08c19.7-30.85 52-58.89 93.86-82.61l-.07-.21.98-.3c28.88-16.28 62.28-30.5 99.21-42.19l1.39-.78.16.3C289.07 13.35 373.31.43 463.58.4h.3c92.59 0 178.83 13.56 251.2 36.94 1 .25 2 .5 3 .77l-.06.19c34.83 11.43 66.38 25.15 93.82 40.72l.14-.05.05.16c69.5 39.5 112.51 90.94 115.14 147.36a66 66 0 0 1 .14 4.46v1.54ZM812.55 80.59c41.08 23.5 72.7 51.15 92.06 81.47-2.1 1.33-4.17 2.68-6.22 4.05-19.76-21.4-47.35-39.04-75.29-51.4a376.57 376.57 0 0 0-10.55-34.12Zm-1.33-.76a433.81 433.81 0 0 0-20.1-10.7C768 57.57 742.41 47.23 714.8 38.31c-41.1-10.48-78.35-16.1-104.08-16.1-7.4 0-12.76.65-16.53 2.07-3.73 1.42-5.86 3.59-6.84 6.67-1 3.13-.85 7.26.16 12.63.95 5 2.62 11 4.72 18.16 3.29.91 6.64 1.9 10.03 2.97 24.82 7.8 52.25 19.74 79.16 35.23 8 4.6 15.94 9.53 23.76 14.75 7.1-13.18 19.01-19.8 38.94-19.8 21.06 0 49.57 6.95 77.82 19.3a384.26 384.26 0 0 0-10.72-34.36Zm-106.5 35.75a424.51 424.51 0 0 0-23.8-14.77c-26.85-15.46-54.2-27.37-78.96-35.15-3.18-1-6.32-1.93-9.4-2.79l.13.46 1.16 3.92.04.14c5.27 17.75 12.36 41.67 17.6 73.4 26.97 4.17 54.66 12.55 83.85 25.16.95-21.8 3.35-38.6 9.38-50.37ZM591.09 61.43c-2.02-6.9-3.63-12.75-4.56-17.66-1.02-5.4-1.21-9.75-.13-13.12 1.09-3.43 3.47-5.8 7.44-7.3 3.94-1.5 9.45-2.14 16.88-2.14 22.5 0 53.73 4.28 88.6 12.31-66.01-19.53-142.6-31.1-224.45-32.05 24 4.57 45.86 23.67 63.35 52.83l.44-.03c14.02-.88 32.13 1.63 52.43 7.16Zm-52.3-6.16c14-.87 32.19 1.67 52.63 7.29l.31 1.05c.4 1.32.8 2.67 1.2 4.06 5.25 17.67 12.3 41.45 17.53 72.95a258.26 258.26 0 0 0-40.6-2.94c-7.15-31.95-17.84-60.07-31.07-82.41Zm-1.7-.9c-20.04-33.2-45.66-52.94-73.39-52.96h-.12c-16.87.02-32.95 7.33-47.48 20.54 33.91.18 60.26 15.55 79.85 40.53 13.1-4.5 26.72-7.08 41.15-8.1Zm-40.5 8.94c13.07-4.45 26.67-6.99 41.08-7.97a211.7 211.7 0 0 1 7.3 13.35c9.92 19.76 18.06 43.12 23.88 69a249.6 249.6 0 0 0-37.73 3.34c-7.29-30.24-18.65-57.16-34.52-77.72Zm-1.64-.49c-19.53-24.77-45.76-39.87-79.47-39.87h-.46c-12.17 11.37-23.22 26.9-32.68 45.74a259.7 259.7 0 0 0-11.33 26.2c21.3.16 38.4 7.27 51.84 19.1a240.25 240.25 0 0 1 17.57-17.75c17.61-15.96 35.51-26.73 54.53-33.42Zm-71.35 51.84a239.21 239.21 0 0 1 17.49-17.68c17.61-15.96 35.5-26.69 54.51-33.33a156.01 156.01 0 0 1 15.05 23.75c8.29 15.95 14.75 34.17 19.48 53.8-25.11 4.24-50.28 12.32-76.18 24.22-6.47-20.36-16.4-38.14-30.35-50.76Zm-1.42.08c-13.34-11.76-30.35-18.77-51.54-18.84-9.51 25.95-16.38 56.03-19.8 88.64a32.05 32.05 0 0 1 18.32 6.51c18.22-31.66 35.62-56.74 53.02-76.3Zm-52.22 76.93c18.22-31.68 35.6-56.73 52.97-76.26 7.22 6.52 13.35 14.45 18.48 23.42 4.7 8.22 8.55 17.32 11.62 27.02C430 176.5 406.37 190.2 381.7 206.9a42.23 42.23 0 0 0-11.73-15.23Zm-1.3.27a31.13 31.13 0 0 0-17.92-6.4 455.76 455.76 0 0 0-2.34 43.72 955.22 955.22 0 0 1 20.25-37.32ZM349 230.28a956.9 956.9 0 0 1 20.45-37.73 41.33 41.33 0 0 1 11.4 14.91A813.27 813.27 0 0 0 349 230.28Zm356.55-114.14c30.55 20.5 59.08 45.57 80.67 74.31-4.88 4.43-8.45 10.76-10.8 17.94-27.8-17.11-54-31.12-79.1-42.02.63-14.67 1.9-27.03 4.47-37.11a63.62 63.62 0 0 1 4.76-13.12Zm81.43 73.65c-21.7-28.86-50.34-54-80.96-74.54a35.2 35.2 0 0 1 8.93-11.03c6.85-5.5 16.22-8.33 29.16-8.33 21.08 0 49.76 7.03 78.14 19.53 3.7 14.88 5.63 28.38 5.68 41.73a148.58 148.58 0 0 1-3.6 32.82c-6.67-3.9-13.94-6.14-20.93-6.14-6.55 0-12 2.22-16.42 5.96Zm-.16 1.47a33.7 33.7 0 0 0-6.5 8.35 50.5 50.5 0 0 0-4.02 9.32 1026.42 1026.42 0 0 1 34.28 22.15 216.35 216.35 0 0 0-23.76-39.82Zm24.49 39.01a217.61 217.61 0 0 0-23.73-39.68 23.82 23.82 0 0 1 15.82-5.76c6.88 0 14.1 2.25 20.7 6.17-2.75 12.17-6.99 25-12.8 39.27Zm13.92-39.76a54.59 54.59 0 0 1 17.47 17.22l8.17-6.38.07-.06.05-.04 6.9-5.4c12.9-10.05 25.82-19.93 39.66-29.18-11.14-12.03-24.78-22.89-39.62-32.3a270.8 270.8 0 0 0-34.52-18.44c3.59 14.64 5.47 28 5.52 41.21a149.73 149.73 0 0 1-3.7 33.37Zm-12.94 40c5.74-14.13 9.95-26.86 12.7-38.97a53.41 53.41 0 0 1 16.92 16.8 800.2 800.2 0 0 1-29.62 22.17Zm9.36 119.81a401.64 401.64 0 0 1-10.72 34.01 434.5 434.5 0 0 1-19.8 10.54c-24.86 12.42-52.53 23.43-82.5 32.78-37.81 9.35-72.3 14.37-97.68 14.37-7.48 0-12.92-.64-16.74-2.07-3.78-1.42-5.95-3.6-6.96-6.68-1.03-3.14-.89-7.28.12-12.65.97-5.2 2.74-11.49 4.96-19.04 3.19-.88 6.42-1.84 9.7-2.87 24.82-7.8 52.25-19.74 79.15-35.23a425.4 425.4 0 0 0 23.63-14.65c7.01 13.71 18.86 20.74 38.84 20.74 21.98 0 50.25-6.97 78-19.25Zm-230.06 50.25-.06.2c-20.31 5.6-38.41 8.19-52.41 7.41 13.13-22.33 23.73-50.4 30.84-82.24h2.42c12.6 0 25.28-.94 38.1-2.83-5.25 31.59-12.34 55.43-17.62 73.18l-1.27 4.28Zm1.65-2.05-.57 1.93c2.97-.83 6-1.73 9.06-2.7 24.75-7.77 52.1-19.68 78.95-35.14a423.87 423.87 0 0 0 23.68-14.69c-5.77-11.87-8.1-28.54-9.04-49.82-29.09 12.48-56.78 20.76-83.8 24.86-5.27 31.8-12.4 55.8-17.7 73.61l-.58 1.95Zm121.34-38.66a36.45 36.45 0 0 1-8.93-11.6c30.61-20.51 59.25-45.63 80.97-74.47a24.78 24.78 0 0 0 16.78 6.38c7 0 14.3-2.3 20.97-6.27a146.62 146.62 0 0 1 3.57 33.19c-.13 13.4-2.16 26.99-5.98 42-27.87 12.43-56.3 19.48-78.3 19.48-12.94 0-22.28-2.98-29.08-8.7Zm-9.38-12.5c30.54-20.48 59.06-45.53 80.68-74.25-4.56-4.3-8.05-10.34-10.4-17.44-27.76 17.13-54 31.14-79.17 42 .6 14.2 1.83 26.3 4.25 36.27a67.73 67.73 0 0 0 4.64 13.42Zm98.2-68.19a23.8 23.8 0 0 1-16.18-6.18 217.75 217.75 0 0 0 23.87-39.89c5.95 14.51 10.27 27.49 13.04 39.77-6.61 4-13.84 6.3-20.73 6.3Zm-16.92-6.86a217.2 217.2 0 0 0 23.37-38.9 989.83 989.83 0 0 1-33.5 21.72 49.1 49.1 0 0 0 4.52 10.06 33.91 33.91 0 0 0 5.6 7.12ZM591.2 401.89c-20.38 5.59-38.58 8.13-52.66 7.26-17.54 29.47-39.53 48.78-63.67 53.38 79.12-.92 153.3-11.76 217.79-30.12-31.46 6.93-59.92 10.61-81.71 10.61-7.51 0-13.1-.64-17.09-2.14-4.02-1.5-6.44-3.88-7.56-7.3-1.11-3.39-.93-7.73.09-13.15.95-5.11 2.67-11.25 4.81-18.54Zm-46.23-6.57a212.23 212.23 0 0 1-6.97 12.8c-15.53-1.02-30.12-3.83-44.1-8.88 15.7-20.55 27.8-47.14 35.85-76.93a253.11 253.11 0 0 0 39.18 3.62c-5.82 26.03-13.99 49.52-23.96 69.38Zm-7.55 13.76c-15.54-1.06-30.15-3.91-44.16-9-20.1 25.94-45.99 42.05-76.65 42.43 14.4 12.92 30.3 20.06 46.97 20.09h.12c27.88-.03 53.63-19.98 73.72-53.52Zm-121.9 32.44c30.64-.01 56.58-15.87 76.75-41.8-18.1-6.75-35.23-17.27-52.09-32.54a239.78 239.78 0 0 1-17.54-17.74c-14.01 12.41-31.36 19.5-51.63 19.66 3.45 9.3 7.24 18.06 11.33 26.21 9.59 19.1 20.81 34.8 33.18 46.21Zm25.34-75.08c16.85 15.27 33.95 25.75 52.05 32.44a173.25 173.25 0 0 0 13.93-21.37c9.08-16.36 16.44-35.12 21.92-55.37-24.61-4.3-49.3-12.23-74.66-23.8-6.8 20.84-17.18 38.15-30.72 50.44a239.35 239.35 0 0 0 17.48 17.66Zm-2.66-36.7a95.35 95.35 0 0 1-15.49 18.29c-17.23-19.38-34.48-44.2-52.56-75.55 4.8-3.9 8.73-9.22 11.58-15.45 24.68 16.64 48.35 30.27 71.46 40.9-3.87 11.85-8.89 22.55-14.99 31.81Zm-87.33-50.04a31.06 31.06 0 0 0 18.49-6.59c18.07 31.33 35.34 56.17 52.61 75.59-13.93 12.33-31.17 19.33-51.33 19.4-9.49-25.89-16.34-55.88-19.77-88.4Zm25.1-14.82c-1.88 2.55-4 4.8-6.33 6.73a950.61 950.61 0 0 1-20.57-37.9 795.28 795.28 0 0 0 31.82 22.75 46.38 46.38 0 0 1-4.91 8.42Zm-7.12 7.36a948.25 948.25 0 0 1-20.45-37.63c.09 15.09.9 29.83 2.37 44.1a30.08 30.08 0 0 0 18.08-6.47Zm490.31 56.58a263.64 263.64 0 0 1-36.03 19.74c3.7-14.76 5.68-28.19 5.8-41.46.1-11.13-1.1-22.15-3.66-33.75a55.32 55.32 0 0 0 17.27-17.16l8.54 6.7 6.7 5.26c12.75 9.98 25.53 19.78 39.24 28.98-10.7 11.73-23.7 22.38-37.86 31.69ZM834.17 265a53.9 53.9 0 0 1-9.13 7.31c-2.75-12.02-6.95-24.69-12.7-38.78a774.1 774.1 0 0 1 29.4 22.04 53.8 53.8 0 0 1-7.57 9.43Zm-138.9 32.03c-29.03 12.49-56.65 20.78-83.58 24.89 4.05-24.83 6.96-54.38 6.98-89.42h76.12c0 4.9-.02 9.68-.03 14.33v.02c-.04 18.83-.08 35.57.52 50.18Zm1-.42c25.07-10.86 51.22-24.83 78.9-41.92a77.18 77.18 0 0 1-3.26-22.19h-76.12c0 4.92-.02 9.71-.03 14.37-.04 16.18-.07 30.81.3 43.87.06 2 .12 3.95.2 5.87Zm79.77-42.46a989.66 989.66 0 0 0 33.37-21.65h-36.5a76.33 76.33 0 0 0 3.13 21.65Zm-203.66 70.8c12.66 0 25.39-.96 38.27-2.87 4.07-24.85 7-54.45 7.02-89.58h-37.75c-.04 32.87-3.51 64.13-9.74 92.44h2.2Zm6.53-92.45c-.03 32.89-3.51 64.15-9.76 92.43a251.92 251.92 0 0 1-39.14-3.59c7.36-27.6 11.23-57.9 11.23-88.64v-.2h37.67Zm-38.67.2c0 30.7-3.88 60.95-11.22 88.47-24.58-4.28-49.25-12.2-74.6-23.79 6.02-18.83 9.17-40.49 9.17-63.89v-.99h76.65v.2Zm-77.65.8c0 23.27-3.13 44.78-9.1 63.46-23.05-10.6-46.69-24.22-71.34-40.86a61.07 61.07 0 0 0 4.84-23.6h75.6v1Zm-76.6-1a60.15 60.15 0 0 1-4.69 23.03 796.16 796.16 0 0 1-32.18-23.03h36.87Zm308.8-1v-.54l-.02-13.88v-.12c-.03-18.81-.06-35.46.53-49.95-29.14-12.6-56.76-21-83.63-25.19 4.06 24.87 6.97 54.5 7 89.68h76.12Zm-84.16-89.84c4.08 24.9 7.01 54.58 7.04 89.84h-37.75c-.04-33.02-3.54-64.41-9.83-92.82h1.63c12.86-.01 25.8.98 38.9 2.98Zm85.65 25.78c24.99 10.88 51.1 24.86 78.83 41.93a76.85 76.85 0 0 0-3.2 22.13h-76.12v-.54l-.02-13.38v-.63c-.03-16.88-.06-32 .36-45.37l.15-4.14Zm79.71 42.47a76.03 76.03 0 0 0-3.08 21.59h36.5a1024.34 1024.34 0 0 0-33.42-21.59ZM569.07 138.7a248.7 248.7 0 0 0-37.71 3.31c6.61 27.85 9.8 58.47 9.87 89.5h37.68c-.03-33.03-3.54-64.43-9.84-92.81Zm-38.7 3.48c6.6 27.76 9.78 58.33 9.86 89.33h-76.65c-.16-22.52-3.08-45.04-9.33-65.11 25.9-11.92 51.04-20 76.12-24.22ZM349.04 231.5a815.74 815.74 0 0 1 32.24-23.11c3 6.77 4.67 14.66 4.7 23.11h-36.94Zm33.07-23.68c24.66-16.7 48.24-30.36 71.22-41.01 6.19 19.92 9.1 42.28 9.25 64.69h-75.6a58.85 58.85 0 0 0-4.87-23.68Zm430.51 24.68a768.68 768.68 0 0 1 29.65 22.22c4.04-6.69 6.53-14.28 6.68-22.22h-36.33Zm36.33-1h-36.33a797.4 797.4 0 0 0 29.81-22.3 43.93 43.93 0 0 1 6.52 22.3Zm1 0c-.05-8.24-2.59-16.07-6.72-22.91l8.37-6.55h.01l6.9-5.4c12.93-10.08 25.87-19.97 39.72-29.23 16 17.53 26.66 37.53 27.95 59.14.07 1.65.12 3.3.12 4.95h-76.35Zm0 1h76.34c-.47 23.27-11.54 44.95-28.6 63.88-13.72-9.2-26.51-19.01-39.3-29.02l-6.7-5.26-.03-.02c-2.85-2.25-5.71-4.5-8.6-6.74 4.16-6.85 6.74-14.66 6.89-22.84ZM23.1 301.86C9.13 279.94 1.56 256.64 1.46 232.5h76l.03 2.18c.52 29.55 8.88 58.94 24.82 86.84-23.52-3.52-49.6-9.94-79.2-19.66Zm.86 1.33c19.64 30.17 51.45 57.66 92.64 81.01a677.31 677.31 0 0 0 55.65 14.92c-30.26-23.19-53.44-49.1-69.3-76.5-23.49-3.45-49.5-9.8-78.99-19.43Zm80.25 19.62c16.08 27.52 39.6 53.56 70.35 76.8a412.9 412.9 0 0 0 36.69 6.32c14.26 1.73 27.23 2.29 38.14 1.35 10.57-.9 19.16-3.2 25.12-7.16-34.83-19.45-67.44-45.5-89.94-77.97-23.92 4.5-50.03 5-80.36.66Zm79.74-1.56c-15.76-23.02-26.43-49.24-29.24-78.6-.33-3.4-.52-6.78-.58-10.15H78.47c0 .72 0 1.44.02 2.16.52 29.6 8.96 59.07 25.08 87.05 30.39 4.43 56.5 3.98 80.38-.46Zm1.08-.2c-15.82-23-26.52-49.18-29.33-78.49-.32-3.37-.51-6.73-.57-10.06h76.91c.03 3.07.19 6.16.49 9.27 1.87 19.52 8.85 38.06 19.22 54.66-15.2 8.2-30.44 14.86-46.47 19.65a205.25 205.25 0 0 1-20.25 4.97Zm.62.9c19.32 27.75 46.09 50.8 75.34 69.03 4.75 2.97 9.57 5.8 14.43 8.5 13.52-9.67 20.07-26 28.35-51.5-20.16-12.6-38.43-30.13-51.49-50.7-15.27 8.25-30.6 14.94-46.71 19.76a206.11 206.11 0 0 1-19.92 4.9Zm67.51-25.15a160 160 0 0 0 29.36 34.1c6.81 6 14.06 11.39 21.57 16.1l.2-.6.3-.95 2.95-9.23c5.54-17.44 12.23-38.48 22.15-63.64a50.4 50.4 0 0 1-14.45-16.28c-21.73 15.75-41.86 29.49-62.08 40.5Zm-.53-.85c20.2-11 40.35-24.75 62.13-40.53a50.14 50.14 0 0 1-6.04-22.92h-75.68a106 106 0 0 0 .48 9.17c1.86 19.37 8.8 37.78 19.11 54.28Zm62.94-41.13a49.14 49.14 0 0 1-5.85-22.32h36.16l-2.6 1.92v.01c-9.6 7.1-18.79 13.92-27.7 20.4Zm28.21-19.52 2.69-2a750.72 750.72 0 0 0-16.4 38.32 47.35 47.35 0 0 1-7.53-6.81 50.97 50.97 0 0 1-6.48-9.1c8.93-6.48 18.13-13.3 27.72-20.4v-.01ZM1.46 231.5c.1-24.07 7.63-47.3 21.52-69.16 29.57-9.75 55.65-16.2 79.16-19.76-16.49 28.77-24.63 58.88-24.67 88.92h-76Zm101.32-90.03c-23.48 3.5-49.48 9.88-78.95 19.54 19.78-30.46 51.95-58.2 93.65-81.71a673.26 673.26 0 0 1 55.72-14.85c-31.14 23.65-54.55 49.72-70.42 77.02ZM78.47 231.5c.04-30.08 8.26-60.26 24.94-89.11 30.5-4.5 56.7-4.11 80.66.3-18.88 26.82-30.29 56.87-29.96 88.81H78.46Zm25.58-90.22c30.46-4.42 56.66-3.96 80.66.51 22.15-31.09 54.34-57.8 89.9-78.07-5.97-4-14.6-6.32-25.22-7.22-10.9-.94-23.88-.38-38.14 1.35a410.11 410.11 0 0 0-35.72 6.1c-31.66 23.72-55.4 49.91-71.48 77.33Zm136.8-54.3c-21.45 16.06-40.44 34.6-55.06 55.02a206.17 206.17 0 0 1 20.24 4.96c15.83 4.74 30.9 11.28 45.9 19.32 12.96-20.62 31.25-38.26 51.72-50.85-8.2-25.24-14.75-41.44-28.14-51.08a330.54 330.54 0 0 0-34.66 22.63Zm-35.1 60.94c-6.71-2-13.56-3.69-20.6-5.02-18.94 26.77-30.37 56.75-30.04 88.6h76.93c0-22.92 7.32-44.94 19.35-64.37-14.92-8-29.9-14.5-45.64-19.21Zm27.29 83.58c0-22.72 7.27-44.59 19.23-63.89 20.4 11.02 40.7 24.85 62.66 40.77-3.88 7.13-6.17 15.17-6.22 23.12h-75.67Zm96.7-40.15a50.41 50.41 0 0 0-14.32 16.15c-21.91-15.88-42.21-29.7-62.62-40.74a155.02 155.02 0 0 1 21.25-26.59 163.1 163.1 0 0 1 29.92-23.76l.62 1.92 2.94 9.21v.01c5.56 17.48 12.27 38.56 22.21 63.8Zm-20.03 40.15c.05-7.72 2.27-15.56 6.04-22.53 9 6.53 18.28 13.41 27.97 20.59h.01v.01l2.61 1.93h-36.63Zm34.57-2.77 2.1 1.56a748.95 748.95 0 0 1-16.26-37.99 46.7 46.7 0 0 0-8.35 7.8 52.38 52.38 0 0 0-5.54 7.99 3403.1 3403.1 0 0 1 28.01 20.61l.04.03Zm-223.5 157.8a440.67 440.67 0 0 0 15.86 8.34c22.66 11.32 47.66 21.48 74.6 30.27a372.18 372.18 0 0 1-37.1-24.6 664.24 664.24 0 0 1-53.37-14Zm55.68 14.51a376.39 376.39 0 0 0 39.36 25.57c68.66 21.82 149.64 34.86 236.59 35.92-13.2-2.53-25.75-9.44-37.28-20-35.55-.1-89.79-14.23-139.64-41.86-6.18 4.26-15.13 6.68-26.02 7.6-11 .95-24.04.38-38.34-1.35a407.84 407.84 0 0 1-34.67-5.88Zm99.93-1.02c49.1 27.13 102.39 41.12 137.66 41.5-17.56-16.53-32.7-41.56-44.1-72.42-21.3-.09-44.3-7.65-65.3-20.58-8.16 25.1-14.74 41.6-28.26 51.5Zm28.58-52.48c20.8 12.85 43.57 20.39 64.6 20.56-9.46-25.92-16.3-55.9-19.7-88.4-6.64-.06-13.33-2.45-19.34-6.53-9.85 25.03-16.51 45.97-22.04 63.36l-.01.04-2.94 9.18-.57 1.79Zm25.93-75.33a747.95 747.95 0 0 1 16.5-38.53c.05 15.41.86 30.47 2.36 45.03-6.44-.1-12.97-2.45-18.86-6.5ZM175.1 63.02a659.66 659.66 0 0 0-53.41 13.94c4.86-2.66 9.84-5.27 14.95-7.83 22.92-11.45 48.24-21.7 75.55-30.57a387.7 387.7 0 0 0-37.09 24.46Zm41.6-25.9a392.72 392.72 0 0 0-39.26 25.4 405.33 405.33 0 0 1 33.69-5.66c14.3-1.74 27.34-2.3 38.34-1.36 10.94.93 19.92 3.37 26.1 7.67 45.63-25.82 96.68-41.02 139.06-41.22 11.67-10.83 24.4-17.91 37.78-20.47-86.58 1.05-167.23 13.98-235.7 35.63Zm196.85-14.16c-41.84.45-92.07 15.46-137.09 40.85 13.4 9.86 19.99 26.24 28.07 51.09 20.7-12.55 43.58-19.92 65.42-20 11.29-30.57 26.26-55.42 43.6-71.94ZM369.58 95.9c-21.59.16-44.23 7.51-64.73 19.97a1179.46 1179.46 0 0 1 3.61 11.3v.02l.01.01.02.05c5.54 17.42 12.21 38.4 22.1 63.51 5.78-3.9 12.31-6.24 19.11-6.24h.14c3.4-32.57 10.25-62.64 19.74-88.62Zm-19.84 89.62a456.93 456.93 0 0 0-2.34 44.58 749.28 749.28 0 0 1-16.44-38.39c5.69-3.88 12.1-6.19 18.74-6.19h.04Zm555.34 115.69c10.21-16.2 16.94-33.15 19.74-50.63-4.24 16.68-13.63 32.3-26.28 46.36 2.15 1.44 4.33 2.86 6.54 4.27Zm18.82-92.84c-4.53-14.93-13.31-28.88-24.83-41.52 2-1.33 4.03-2.65 6.07-3.95 9.2 14.6 15.55 29.81 18.76 45.47Z" clip-rule="evenodd"/>
</svg>