<svg width="1001" height="215" viewBox="0 0 1001 215" fill="none" class="unternet-wordmark-svg-root" xmlns="http://www.w3.org/2000/svg">
  <style>
    :root {
      --bg-color: #333;  /* Default background color */
      --fg-color: #E4E5E7; /* Default foreground color */
    }
    .unternet-wordmark-svg-fg { pointer-events: none; }
    .unternet-wordmark-svg-bg { fill: var(--bg-color); }
    .unternet-wordmark-svg-fg { fill: var(--fg-color); }
  </style>
<!--un-->
  <!--bg-->
  <path class="unternet-wordmark-svg-bg phoneme-un" d="M0.824219 50.4328C0.824219 32.8412 0.824219 24.0454 4.24777 17.3263C7.25921 11.416 12.0644 6.61078 17.9747 3.59933C24.6938 0.175781 33.4896 0.175781 51.0812 0.175781H239.682C257.274 0.175781 266.07 0.175781 272.789 3.59933C278.699 6.61078 283.504 11.416 286.516 17.3263C289.939 24.0454 289.939 32.8412 289.939 50.4328V163.919C289.939 181.51 289.939 190.306 286.516 197.025C283.504 202.936 278.699 207.741 272.789 210.752C266.07 214.176 257.274 214.176 239.682 214.176H51.0812C33.4896 214.176 24.6938 214.176 17.9747 210.752C12.0644 207.741 7.25921 202.936 4.24777 197.025C0.824219 190.306 0.824219 181.51 0.824219 163.919V50.4328Z"/>
  <!--grapheme-->
  <path class="unternet-wordmark-svg-fg unternet-wordmark-svg-phoneme phoneme-un" fill-rule="evenodd" clip-rule="evenodd" d="M230.701 109.181C230.701 84.9023 220.776 72.8516 200.928 72.8516C185.266 72.8516 177.426 81.0807 170.447 90.5303H169.915V75.3326L152.548 75.3326L152.548 163.941H169.915V107.97C169.915 95.7814 177.916 87.0289 193.662 87.0289C206.245 87.0289 213.333 95.0036 213.333 111.839L213.333 163.941H230.701V109.181ZM59.582 130.017C59.582 154.296 69.5061 166.347 89.3543 166.347C105.017 166.347 112.857 158.118 119.836 148.668H120.367V163.866H137.734V75.2575H120.367V131.228C120.367 143.417 112.367 152.169 96.6202 152.169C84.0379 152.169 76.9492 144.195 76.9492 127.359V75.2575H59.582V130.017Z"/>
  <!--pronunciation-->
  <path d="M135.83 37.07H137.21L133.98 45.36H132.6L135.83 37.07ZM138.28 36.44H139.48V40.57H138.28V36.44ZM146.73 45.36H145.42L143.6 40.26 141.84 45.36H140.52L142.93 38.99H144.33L146.73 45.36ZM152.17 41.59C152.17 41.02 152.03 40.61 151.75 40.36 151.47 40.1 151.09 39.97 150.62 39.97 150.32 39.97 150.05 40.04 149.81 40.17 149.57 40.3 149.38 40.47 149.24 40.71 149.1 40.94 149.03 41.21 149.03 41.5L148.61 41.43C148.62 40.88 148.75 40.42 148.99 40.03 149.23 39.65 149.54 39.35 149.91 39.14 150.28 38.93 150.66 38.83 151.04 38.83 151.51 38.83 151.91 38.92 152.26 39.11 152.62 39.3 152.9 39.59 153.1 39.96 153.3 40.33 153.41 40.79 153.41 41.33V45.36H152.17V41.59ZM147.79 38.99H149.03V45.36H147.79V38.99ZM157.7 37.07H159.08L155.85 45.36H154.48L157.7 37.07Z" fill="#E4E5E7"/>
<!--ter-->
  <!--bg-->
  <path class="unternet-wordmark-svg-bg phoneme-ter" d="M311.184 50.4328C311.184 32.8412 311.184 24.0454 314.607 17.3263C317.619 11.416 322.424 6.61078 328.334 3.59933C335.053 0.175781 343.849 0.175781 361.441 0.175781H577.483C595.075 0.175781 603.871 0.175781 610.59 3.59933C616.5 6.61078 621.305 11.416 624.317 17.3263C627.74 24.0454 627.74 32.8412 627.74 50.4328V163.919C627.74 181.51 627.74 190.306 624.317 197.025C621.305 202.936 616.5 207.741 610.59 210.752C603.871 214.176 595.075 214.176 577.483 214.176H361.441C343.849 214.176 335.053 214.176 328.334 210.752C322.424 207.741 317.619 202.936 314.607 197.025C311.184 190.306 311.184 181.51 311.184 163.919V50.4328Z"/>
  <!--grapheme-->
  <path class="unternet-wordmark-svg-fg unternet-wordmark-svg-phoneme phoneme-ter" fill-rule="evenodd" clip-rule="evenodd" d="M376.461 140.77C376.461 156.164 385.308 164.126 400.702 164.126H419.281V149.617H404.949C397.517 149.617 393.802 145.37 393.802 137.585V88.9266H419.281V75.6561H393.802V54.8047H376.461V75.6561H354.766V88.9266H376.461V140.77ZM470.504 166.09C445.379 166.09 426.623 148.927 426.623 119.201C426.623 90.8903 444.671 72.3116 471.035 72.3116C496.515 72.3116 514.209 88.4132 514.209 117.254C514.209 119.732 514.032 121.678 513.855 123.447H443.433C444.317 141.672 454.934 152.465 471.212 152.465C483.775 152.465 492.799 146.272 495.807 134.771H512.97C509.608 154.943 492.976 166.09 470.504 166.09ZM443.963 112.477H496.691C496.338 96.5524 486.606 85.2282 470.681 85.2282C455.111 85.2282 445.025 96.9063 443.963 112.477ZM526.045 164.231V75.7608H543.208L542.677 100.886H543.562C546.924 87.085 554.178 74.1684 570.103 74.1684C572.934 74.1684 575.057 74.3453 577.181 74.6992V92.3932H570.634C554.355 92.3932 543.208 100.886 543.208 124.95V164.231H526.045Z"/>
  <!--pronunciation-->
  <path class="unternet-wordmark-svg-fg unternet-wordmark-svg-pronunciation phoneme-ter" d="M460.22 36.28H461.6L458.37 44.57H457L460.22 36.28ZM462.08 38.2H465.55V39.23H462.08V38.2ZM465.55 43.49V44.57H464.93C464.61 44.57 464.32 44.51 464.05 44.4 463.79 44.27 463.58 44.08 463.42 43.82 463.26 43.57 463.18 43.23 463.18 42.82V36.54H464.42V42.65C464.42 42.98 464.47 43.2 464.59 43.31 464.71 43.43 464.87 43.49 465.06 43.49H465.55ZM472.57 41.39C472.57 42.06 472.44 42.64 472.2 43.14 471.96 43.63 471.61 44.01 471.15 44.27 470.69 44.54 470.15 44.67 469.53 44.67 468.93 44.67 468.4 44.54 467.94 44.27 467.47 44 467.11 43.63 466.84 43.15 466.59 42.68 466.46 42.14 466.46 41.53V41.06H471.41V41.97H467.78C467.81 42.32 467.9 42.63 468.05 42.89 468.21 43.15 468.41 43.35 468.66 43.49 468.92 43.63 469.2 43.7 469.52 43.7 469.91 43.7 470.24 43.62 470.5 43.45 470.77 43.28 470.97 43.02 471.1 42.68 471.23 42.33 471.3 41.9 471.3 41.39 471.3 40.64 471.14 40.07 470.83 39.69 470.51 39.3 470.05 39.11 469.44 39.11 468.98 39.11 468.61 39.21 468.32 39.41 468.05 39.6 467.88 39.88 467.81 40.24H466.49C466.63 39.53 466.94 38.99 467.43 38.62 467.93 38.26 468.59 38.07 469.42 38.07 470.07 38.07 470.62 38.21 471.09 38.48 471.56 38.75 471.93 39.13 472.18 39.63 472.44 40.12 472.57 40.7 472.57 41.39ZM477.06 39.36H476.74C476.42 39.36 476.12 39.42 475.84 39.56 475.58 39.68 475.37 39.86 475.21 40.09 475.06 40.31 474.98 40.58 474.98 40.87L474.56 40.8C474.56 40.24 474.67 39.75 474.88 39.34 475.1 38.94 475.37 38.63 475.71 38.41 476.05 38.19 476.39 38.07 476.73 38.07H477.06V39.36ZM473.74 38.2H474.98V44.57H473.74V38.2ZM480.3 36.28H481.68L478.44 44.57H477.08L480.3 36.28Z"/>
<!--net-->
  <!--bg-->
  <path class="unternet-wordmark-svg-bg phoneme-net" d="M648.984 50.4328C648.984 32.8412 648.984 24.0454 652.408 17.3263C655.419 11.416 660.225 6.61078 666.135 3.59933C672.854 0.175781 681.65 0.175781 699.241 0.175781H950.566C968.157 0.175781 976.953 0.175781 983.672 3.59933C989.583 6.61078 994.388 11.416 997.399 17.3263C1000.82 24.0454 1000.82 32.8412 1000.82 50.4328V163.919C1000.82 181.51 1000.82 190.306 997.399 197.025C994.388 202.936 989.583 207.741 983.672 210.752C976.953 214.176 968.157 214.176 950.566 214.176H699.241C681.65 214.176 672.854 214.176 666.135 210.752C660.225 207.741 655.419 202.936 652.408 197.025C648.984 190.306 648.984 181.51 648.984 163.919V50.4328Z"/>
  <!--grapheme-->
  <path class="unternet-wordmark-svg-fg unternet-wordmark-svg-grapheme phoneme-net" fill-rule="evenodd" clip-rule="evenodd" d="M927.975 161.474C912.581 161.474 903.734 153.511 903.734 138.118V86.2742H882.038V73.0037H903.734V52.1523H921.074V73.0037H946.554V86.2742H921.074V134.933C921.074 142.718 924.79 146.965 932.222 146.965H946.554V161.474H927.975ZM834.338 164.126C809.213 164.126 790.457 146.963 790.457 117.237C790.457 88.9271 808.505 70.3484 834.869 70.3484C860.349 70.3484 878.043 86.4499 878.043 115.291C878.043 117.768 877.866 119.715 877.689 121.484H807.267C808.151 139.709 818.768 150.502 835.046 150.502C847.609 150.502 856.633 144.309 859.641 132.808H876.804C873.442 152.979 856.81 164.126 834.338 164.126ZM807.797 110.514H860.525C860.172 94.5891 850.44 83.265 834.515 83.265C818.945 83.265 808.859 94.943 807.797 110.514ZM779.531 109.118C779.531 84.8398 769.607 72.7891 749.759 72.7891C734.097 72.7891 726.256 81.0182 719.278 90.4678H718.746L718.746 75.2701L701.379 75.2701L701.379 163.878H718.746L718.746 107.908C718.746 95.719 726.746 86.9664 742.493 86.9664C755.075 86.9664 762.164 94.9411 762.164 111.777L762.164 163.878H779.531L779.531 109.118Z" fill="#E4E5E7"/>
  <!--pronunciation-->
  <path class="unternet-wordmark-svg-fg unternet-wordmark-svg-pronunciation phoneme-net" d="M815.31 36.28H816.69L813.46 44.57H812.09L815.31 36.28ZM822 40.8C822 40.23 821.85 39.82 821.57 39.57 821.29 39.31 820.91 39.18 820.44 39.18 820.14 39.18 819.87 39.25 819.63 39.38 819.39 39.51 819.2 39.68 819.06 39.92 818.92 40.15 818.85 40.41 818.85 40.71L818.44 40.64C818.44 40.09 818.57 39.63 818.81 39.24 819.05 38.85 819.36 38.56 819.73 38.35 820.1 38.14 820.48 38.04 820.86 38.04 821.33 38.04 821.73 38.13 822.08 38.32 822.44 38.51 822.72 38.8 822.92 39.17 823.12 39.54 823.23 40 823.23 40.54V44.57H822V40.8ZM817.61 38.2H818.85V44.57H817.61V38.2ZM826 40.91H827.83V41.85H826V40.91ZM826.59 41.63C825.93 41.63 825.42 41.49 825.06 41.2 824.69 40.91 824.51 40.51 824.51 39.99 824.51 39.6 824.62 39.26 824.83 38.97 825.05 38.67 825.35 38.44 825.73 38.29 826.11 38.12 826.55 38.04 827.05 38.04 827.55 38.04 827.99 38.13 828.37 38.31 828.76 38.48 829.07 38.73 829.3 39.04 829.53 39.36 829.67 39.73 829.7 40.15H828.43C828.41 39.81 828.29 39.54 828.06 39.34 827.83 39.14 827.51 39.04 827.11 39.04 826.7 39.04 826.37 39.13 826.14 39.31 825.91 39.48 825.79 39.73 825.79 40.05 825.79 40.33 825.86 40.54 826 40.69 826.14 40.84 826.34 40.91 826.59 40.91V41.63ZM826.59 41.12V41.85C826.29 41.85 826.06 41.92 825.89 42.08 825.73 42.23 825.65 42.45 825.65 42.74 825.65 43.04 825.78 43.27 826.02 43.44 826.26 43.6 826.61 43.69 827.04 43.69 827.46 43.69 827.8 43.6 828.06 43.41 828.32 43.22 828.46 42.96 828.48 42.63H829.75C829.72 43.07 829.58 43.44 829.34 43.75 829.1 44.06 828.78 44.29 828.38 44.46 827.99 44.62 827.55 44.7 827.05 44.7 826.52 44.7 826.05 44.62 825.65 44.47 825.26 44.31 824.95 44.09 824.72 43.81 824.51 43.53 824.4 43.2 824.4 42.83 824.4 42.47 824.48 42.17 824.66 41.92 824.83 41.66 825.08 41.47 825.41 41.34 825.74 41.19 826.13 41.12 826.59 41.12ZM830.67 38.2H834.14V39.23H830.67V38.2ZM834.14 43.49V44.57H833.52C833.21 44.57 832.92 44.51 832.65 44.4 832.39 44.27 832.17 44.08 832.02 43.82 831.86 43.57 831.78 43.23 831.78 42.82V36.54H833.01V42.65C833.01 42.98 833.07 43.2 833.19 43.31 833.31 43.43 833.47 43.49 833.66 43.49H834.14ZM838.19 36.28H839.57L836.34 44.57H834.97L838.19 36.28Z" fill="#E4E5E7"/>
</svg>